<?xml version="1.0" encoding="utf-8"?>
<!-- Generator: Adobe Illustrator 24.0.2, SVG Export Plug-In . SVG Version: 6.00 Build 0)  -->
<svg version="1.1" id="Capa_1" xmlns="http://www.w3.org/2000/svg" xmlns:xlink="http://www.w3.org/1999/xlink" x="0px" y="0px"
	 viewBox="0 0 1920 85" style="enable-background:new 0 0 1920 85;" xml:space="preserve">
<style type="text/css">
	.st0{fill:#F2F2F4;}
</style>
<g>
	<path class="st0" d="M62.8,21.2H52.7v-3h23.7v3H66.3v36.2h-3.5V21.2z"/>
	<path class="st0" d="M107.8,17.6c8,0,12.5,6.2,12.5,20.2s-4.5,20.2-12.5,20.2s-12.5-6.2-12.5-20.2S99.8,17.6,107.8,17.6z
		 M107.8,55.1c5.6,0,9-4.6,9-17.3s-3.4-17.3-9-17.3s-9,4.6-9,17.3S102.3,55.1,107.8,55.1z"/>
	<path class="st0" d="M142.4,18.3h6.1l9.4,34.7h0.1l9.4-34.7h5.8v39.1h-3.5V21.6h-0.1l-10.1,35.8h-3.3L146,21.6h-0.1v35.8h-3.5V18.3
		z"/>
	<path class="st0" d="M203.9,18.3h4.4l11.6,39.1h-3.7L213,46h-13.7l-3.2,11.4h-3.7L203.9,18.3z M212.2,43l-6-22h-0.1l-6,22H212.2z"
		/>
	<path class="st0" d="M238.8,18.3h11.7c6.5,0,10.1,3.7,10.1,9.8c0,4.7-1.9,8.9-7.1,9.9v0.1c4.9,0.4,6.5,3.2,6.7,9.3l0.1,4.3
		c0.1,2.1,0.3,4.2,1.6,5.8h-4.1c-0.8-1.4-1-3.4-1-5.5l-0.1-3.3c-0.2-6.9-1.5-9.1-7.8-9.1h-6.6v17.9h-3.5V18.3z M242.3,36.6h6
		c5.5,0,8.8-2.5,8.8-7.7c0-4.8-2-7.7-8.4-7.7h-6.4V36.6z"/>
	<path class="st0" d="M311.1,18.3h10.8c7.6,0,10.5,4,10.5,9.8c0,3.8-2.1,7.5-6,8.5v0.1c4.8,0.9,7.3,4.7,7.3,9.8
		c0,6.8-4.4,11-11.8,11h-10.7V18.3z M314.6,35.5h5.5c6,0,8.8-2.6,8.8-7.1c0-5.2-2.7-7.1-8.2-7.1h-6.1V35.5z M314.6,54.4h6.5
		c6.1,0,9-2.7,9-8c0-5.3-3-8-9-8h-6.5V54.4z"/>
	<path class="st0" d="M354.4,18.3h19.4v3h-15.9v14.2h14.8v3h-14.8v16h16.4v3h-19.9V18.3z"/>
	<path class="st0" d="M394.6,18.3h10.8c7.6,0,10.5,4,10.5,9.8c0,3.8-2.1,7.5-6,8.5v0.1c4.8,0.9,7.3,4.7,7.3,9.8
		c0,6.8-4.4,11-11.8,11h-10.7V18.3z M398.1,35.5h5.5c6,0,8.8-2.6,8.8-7.1c0-5.2-2.7-7.1-8.2-7.1h-6.1V35.5z M398.1,54.4h6.5
		c6.1,0,9-2.7,9-8c0-5.3-3-8-9-8h-6.5V54.4z"/>
	<path class="st0" d="M438.1,18.3h3.5v39.1h-3.5V18.3z"/>
	<path class="st0" d="M463.9,18.3h9.4c11.4,0,14.2,6.8,14.2,19.6c0,12.8-2.8,19.6-14.2,19.6h-9.4V18.3z M467.4,54.4h5.7
		c7.7,0,10.9-3.8,10.9-16.5c0-12.8-3.2-16.7-10.9-16.7h-5.7V54.4z"/>
	<path class="st0" d="M517.6,18.3h4.4l11.6,39.1h-3.7L526.7,46H513l-3.2,11.4h-3.7L517.6,18.3z M525.9,43l-6-22h-0.1l-6,22H525.9z"
		/>
	<path class="st0" d="M569.6,28.3c0-4.8-2.2-7.7-7-7.7c-4.8,0-7.4,3.1-7.4,7c0,11.7,19,5.3,19,19c0,7.6-4.7,11.5-11.8,11.5
		c-7.3,0-11.4-3.9-11.4-11.6v-1.2h3.5v1.5c0,5,2.6,8.3,7.8,8.3c4.9,0,8.4-2.5,8.4-7.9c0-11.6-19-5-19-19.2c0-6.1,4-10.4,10.8-10.4
		c7.3,0,10.6,3.7,10.6,10.7H569.6z"/>
	<path class="st0" d="M630.1,18.3h4.4l11.6,39.1h-3.7L639.1,46h-13.7l-3.2,11.4h-3.7L630.1,18.3z M638.4,43l-6-22h-0.1l-6,22H638.4z
		"/>
	<path class="st0" d="M665,18.3h3.5v36.2h16.2v3H665V18.3z"/>
	<path class="st0" d="M728,44.1c-0.5,8.9-4.6,13.9-11.6,13.9c-8,0-12.5-6.2-12.5-20.2s4.5-20.2,12.5-20.2c7.9,0,11.2,5.6,11.2,12.1
		h-3.5c0-5.3-2.7-9.1-7.7-9.1c-5.6,0-9,4.6-9,17.3s3.4,17.3,9,17.3c4.9,0,7.7-4.2,8.1-11H728z"/>
	<path class="st0" d="M760.7,17.6c8,0,12.5,6.2,12.5,20.2s-4.5,20.2-12.5,20.2s-12.5-6.2-12.5-20.2S752.7,17.6,760.7,17.6z
		 M760.7,55.1c5.6,0,9-4.6,9-17.3s-3.4-17.3-9-17.3s-9,4.6-9,17.3S755.1,55.1,760.7,55.1z"/>
	<path class="st0" d="M813.7,37.9h-15.3v19.5h-3.5V18.3h3.5v16.7h15.3V18.3h3.5v39.1h-3.5V37.9z"/>
	<path class="st0" d="M851.4,17.6c8,0,12.5,6.2,12.5,20.2s-4.5,20.2-12.5,20.2s-12.5-6.2-12.5-20.2S843.4,17.6,851.4,17.6z
		 M851.4,55.1c5.6,0,9-4.6,9-17.3s-3.4-17.3-9-17.3s-9,4.6-9,17.3S845.8,55.1,851.4,55.1z M857,8.7l-5.4,7.7H849l4.1-7.7H857z"/>
	<path class="st0" d="M885.5,18.3h3.5v36.2h16.2v3h-19.7V18.3z"/>
	<path class="st0" d="M925,18.3h3.5v39.1H925V18.3z"/>
	<path class="st0" d="M974.5,44.1c-0.5,8.9-4.6,13.9-11.6,13.9c-8,0-12.5-6.2-12.5-20.2s4.5-20.2,12.5-20.2
		c7.9,0,11.2,5.6,11.2,12.1h-3.5c0-5.3-2.7-9.1-7.7-9.1c-5.6,0-9,4.6-9,17.3s3.4,17.3,9,17.3c4.9,0,7.7-4.2,8.1-11H974.5z"/>
	<path class="st0" d="M1003.5,18.3h4.4l11.6,39.1h-3.7l-3.2-11.4h-13.7l-3.2,11.4h-3.7L1003.5,18.3z M1011.8,43l-6-22h-0.1l-6,22
		H1011.8z"/>
	<path class="st0" d="M1055.5,28.3c0-4.8-2.2-7.7-7-7.7c-4.8,0-7.4,3.1-7.4,7c0,11.7,19,5.3,19,19c0,7.6-4.7,11.5-11.8,11.5
		c-7.3,0-11.4-3.9-11.4-11.6v-1.2h3.5v1.5c0,5,2.6,8.3,7.8,8.3c4.9,0,8.4-2.5,8.4-7.9c0-11.6-19-5-19-19.2c0-6.1,4-10.4,10.8-10.4
		c7.3,0,10.6,3.7,10.6,10.7H1055.5z"/>
	<path class="st0" d="M1109.6,18.3h19.4v3h-15.9v14.2h14.8v3h-14.8v16h16.4v3h-19.9V18.3z"/>
	<path class="st0" d="M1149.8,18.3h4.7l15,34.1h0.1V18.3h3.5v39.1h-4.7l-15-34.1h-0.1v34.1h-3.5V18.3z"/>
	<path class="st0" d="M1224.1,18.3h19.4v3h-15.9v14.2h14.8v3h-14.8v16h16.4v3h-19.9V18.3z"/>
	<path class="st0" d="M1273.8,40.6l-9.1,16.8h-3.5l10.7-19.9l-10-19.2h3.7l8.3,15.9l8.4-15.9h3.5l-10.1,19.2l10.8,19.9h-3.7
		L1273.8,40.6z"/>
	<path class="st0" d="M1329.3,44.1c-0.5,8.9-4.6,13.9-11.6,13.9c-8,0-12.5-6.2-12.5-20.2s4.5-20.2,12.5-20.2
		c7.9,0,11.2,5.6,11.2,12.1h-3.5c0-5.3-2.7-9.1-7.7-9.1c-5.6,0-9,4.6-9,17.3s3.4,17.3,9,17.3c4.9,0,7.7-4.2,8.1-11H1329.3z"/>
	<path class="st0" d="M1349.9,18.3h19.4v3h-15.9v14.2h14.8v3h-14.8v16h16.4v3h-19.9V18.3z"/>
	<path class="st0" d="M1407.3,28.3c0-4.8-2.2-7.7-7-7.7c-4.8,0-7.4,3.1-7.4,7c0,11.7,19,5.3,19,19c0,7.6-4.7,11.5-11.8,11.5
		c-7.3,0-11.4-3.9-11.4-11.6v-1.2h3.5v1.5c0,5,2.6,8.3,7.8,8.3c4.9,0,8.4-2.5,8.4-7.9c0-11.6-19-5-19-19.2c0-6.1,4-10.4,10.8-10.4
		c7.3,0,10.6,3.7,10.6,10.7H1407.3z"/>
	<path class="st0" d="M1444.5,17.6c8,0,12.5,6.2,12.5,20.2s-4.5,20.2-12.5,20.2s-12.5-6.2-12.5-20.2S1436.5,17.6,1444.5,17.6z
		 M1444.5,55.1c5.6,0,9-4.6,9-17.3s-3.4-17.3-9-17.3c-5.6,0-9,4.6-9,17.3S1438.9,55.1,1444.5,55.1z"/>
	<path class="st0" d="M1507.7,18.3h19.4v3h-15.9v14.2h14.8v3h-14.8v16h16.4v3h-19.9V18.3z"/>
	<path class="st0" d="M1565.1,28.3c0-4.8-2.2-7.7-7-7.7c-4.8,0-7.4,3.1-7.4,7c0,11.7,19,5.3,19,19c0,7.6-4.7,11.5-11.8,11.5
		c-7.3,0-11.4-3.9-11.4-11.6v-1.2h3.5v1.5c0,5,2.6,8.3,7.8,8.3c4.9,0,8.4-2.5,8.4-7.9c0-11.6-19-5-19-19.2c0-6.1,4-10.4,10.8-10.4
		c7.3,0,10.6,3.7,10.6,10.7H1565.1z"/>
	<path class="st0" d="M1619.1,18.3h9.4c11.4,0,14.2,6.8,14.2,19.6c0,12.8-2.8,19.6-14.2,19.6h-9.4V18.3z M1622.6,54.4h5.7
		c7.7,0,10.9-3.8,10.9-16.5c0-12.8-3.2-16.7-10.9-16.7h-5.7V54.4z"/>
	<path class="st0" d="M1672.9,18.3h4.4l11.6,39.1h-3.7l-3.2-11.4h-13.7l-3.2,11.4h-3.7L1672.9,18.3z M1681.2,43l-6-22h-0.1l-6,22
		H1681.2z"/>
	<path class="st0" d="M1707.7,18.3h4.7l15,34.1h0.1V18.3h3.5v39.1h-4.7l-15-34.1h-0.1v34.1h-3.5V18.3z M1726.7,9.8
		c-0.1,2.2-1.6,5.4-4.2,5.4c-1,0-1.8-0.3-2.7-0.8l-2.1-1.2c-0.5-0.3-1-0.4-1.3-0.4c-1,0-1.8,1.4-2,2.6h-2.4c0.1-2.3,1.8-5.4,4.2-5.4
		c1.3,0,1.9,0.3,3.1,1l1.4,0.8c0.5,0.3,1.2,0.6,1.6,0.6c1.2,0,2-1.7,1.9-2.6H1726.7z"/>
	<path class="st0" d="M1753.3,18.3h3.5v39.1h-3.5V18.3z"/>
	<path class="st0" d="M1779,18.3h4.7l15,34.1h0.1V18.3h3.5v39.1h-4.7l-15-34.1h-0.1v34.1h-3.5V18.3z"/>
	<path class="st0" d="M1836.5,17.6c8,0,12.5,6.2,12.5,20.2s-4.5,20.2-12.5,20.2s-12.5-6.2-12.5-20.2S1828.5,17.6,1836.5,17.6z
		 M1836.5,55.1c5.6,0,9-4.6,9-17.3s-3.4-17.3-9-17.3c-5.6,0-9,4.6-9,17.3S1830.9,55.1,1836.5,55.1z"/>
</g>
</svg>
